<?xml version="1.0" standalone="no"?>
<!DOCTYPE svg PUBLIC "-//W3C//DTD SVG 20010904//EN"
 "http://www.w3.org/TR/2001/REC-SVG-20010904/DTD/svg10.dtd">
<svg version="1.0" xmlns="http://www.w3.org/2000/svg"
 width="460.000000pt" height="460.000000pt" viewBox="0 0 460.000000 460.000000"
 preserveAspectRatio="xMidYMid meet">

<g transform="translate(0.000000,460.000000) scale(0.100000,-0.100000)"
fill="#000000" stroke="none">
<path d="M2220 4100 c-36 -5 -87 -18 -114 -30 -48 -22 -55 -22 -172 -4 -88 13
-292 -45 -469 -134 -68 -34 -182 -126 -201 -164 l-16 -31 39 23 c21 13 56 40
78 60 71 66 158 107 305 141 67 16 242 13 294 -5 42 -14 48 -14 129 14 159 54
294 60 578 24 125 -15 294 -61 372 -100 l47 -24 0 21 c0 12 -22 47 -50 79
l-49 57 -88 6 c-48 3 -108 13 -133 21 -134 46 -381 66 -550 46z"/>
<path d="M1190 3817 c0 -55 3 -67 16 -67 14 0 16 8 10 57 -10 85 -26 91 -26
10z"/>
<path d="M1090 3849 c0 -8 10 -42 21 -75 l22 -62 -46 -61 c-26 -33 -81 -127
-123 -208 -169 -326 -284 -491 -380 -549 -46 -27 -126 -33 -183 -13 -27 10
-35 9 -49 -5 -16 -15 -15 -20 8 -63 36 -69 149 -168 215 -190 27 -9 30 -13 25
-44 -10 -66 -4 -265 9 -319 34 -140 137 -297 206 -314 36 -9 76 18 91 63 10
31 11 31 27 13 9 -10 17 -23 17 -28 0 -14 -94 -84 -113 -84 -24 0 -30 -18 -8
-25 24 -7 66 9 110 42 l34 26 -6 -47 c-16 -113 -82 -205 -159 -220 -16 -3 -39
-8 -53 -11 -38 -8 -33 -46 10 -84 69 -60 151 -81 208 -52 37 19 37 19 37 -1 0
-56 73 -236 121 -297 21 -26 24 -53 9 -80 -8 -16 -14 -17 -55 -6 -60 15 -164
3 -219 -26 -71 -36 -122 -94 -146 -167 -19 -56 -22 -80 -18 -171 4 -79 11
-118 26 -151 26 -55 67 -102 107 -123 45 -22 181 -58 259 -68 66 -8 72 -7 150
27 94 42 116 60 161 130 43 67 67 160 64 252 -2 59 1 76 16 90 17 16 17 16 11
-12 -17 -71 -17 -87 -2 -137 9 -34 34 -77 66 -117 l51 -64 -75 -149 c-41 -82
-100 -213 -130 -291 -29 -79 -57 -151 -61 -160 -6 -16 -1 -18 37 -18 l44 0 13
52 c15 60 59 168 151 373 15 33 35 82 45 108 10 26 21 50 25 52 5 3 21 -2 36
-10 16 -8 37 -15 47 -15 23 0 14 10 -60 63 -67 49 -110 99 -139 161 -29 63
-30 87 -4 162 25 71 39 191 22 180 -7 -4 -12 -3 -12 2 0 6 7 12 15 16 22 8 19
20 -13 52 -24 24 -48 64 -39 64 17 0 190 -49 196 -56 4 -5 16 -38 25 -74 25
-93 39 -130 49 -130 4 0 6 8 3 18 -29 103 -29 99 -12 123 22 32 20 46 -4 24
-19 -17 -20 -17 -30 9 -5 15 -10 29 -10 32 0 6 59 4 102 -4 l38 -7 -31 -60
c-21 -40 -32 -75 -32 -104 0 -44 2 -47 94 -135 61 -59 103 -108 118 -140 22
-46 23 -53 11 -95 -25 -89 -24 -98 9 -140 55 -69 57 -90 21 -169 -39 -84 -36
-94 55 -184 l66 -67 -40 -11 c-45 -12 -48 -16 -26 -47 14 -20 13 -22 -13 -31
-25 -10 -23 -10 21 -11 51 -1 59 10 30 41 -16 18 -16 19 3 24 34 9 39 6 44
-28 l5 -33 199 -3 c219 -3 216 -4 216 58 l0 35 46 -47 c26 -27 55 -48 65 -48
11 0 19 3 19 6 0 3 -22 28 -50 57 -27 28 -56 65 -64 82 -14 30 -11 85 4 85 24
0 40 -16 51 -48 18 -57 54 -98 103 -118 25 -11 51 -29 57 -41 9 -17 21 -23 45
-23 l33 0 -24 73 c-13 39 -44 140 -70 222 -27 83 -74 204 -105 270 -32 66 -67
141 -79 168 -24 52 -32 55 -95 32 -45 -16 -56 -13 -56 16 0 12 12 27 31 37 17
9 62 37 100 61 38 24 118 63 177 88 147 61 142 60 142 29 0 -19 -10 -33 -41
-54 -91 -61 -93 -65 -81 -108 5 -21 24 -73 42 -114 17 -41 54 -142 81 -225 48
-145 95 -269 110 -290 4 -5 13 -45 19 -88 15 -92 33 -117 83 -117 35 0 36 1
31 29 -6 27 -2 31 57 62 35 19 87 57 116 86 29 29 59 53 67 53 26 0 58 -51 52
-85 -3 -16 -8 -56 -12 -88 l-6 -57 44 0 45 0 11 51 c7 28 12 59 12 70 0 26 15
24 38 -6 51 -65 122 6 122 123 l0 61 27 -14 c29 -15 56 -7 66 19 11 28 -24
120 -59 156 l-34 35 27 65 c14 36 28 93 31 127 4 58 3 63 -16 63 -13 0 -23
-10 -30 -30 -17 -48 -71 -108 -113 -124 -49 -20 -72 -20 -136 -1 l-50 15 10
53 c14 78 3 119 -42 159 -21 18 -53 41 -72 52 -32 17 -33 19 -14 30 10 6 39
30 64 53 l46 41 3 81 4 81 49 0 c53 0 119 22 119 40 0 5 -17 25 -38 44 -20 19
-43 51 -51 71 -12 34 -11 39 11 63 181 203 183 205 193 222 6 8 12 40 15 70
l5 54 48 -3 c66 -4 127 8 134 26 4 10 -7 27 -30 47 -41 36 -62 74 -77 141
l-10 47 70 75 c39 42 70 83 68 92 -2 8 -18 18 -36 22 -45 9 -74 37 -66 63 9
29 8 29 49 12 26 -11 42 -13 50 -6 8 6 18 67 25 154 12 136 14 145 35 150 35
9 37 33 7 69 -15 17 -36 45 -46 61 -18 28 -17 28 7 55 43 46 43 67 0 109 -21
20 -61 55 -87 76 l-49 40 22 15 c88 62 121 109 121 171 0 61 -13 70 -95 70
-65 0 -77 3 -105 26 -17 15 -49 63 -72 108 -48 96 -140 210 -235 291 -37 32
-75 65 -83 74 -22 23 -97 82 -153 120 l-49 33 16 -29 c8 -16 39 -52 68 -80 29
-27 88 -83 130 -123 54 -51 107 -117 178 -224 102 -151 171 -229 219 -248 14
-5 50 -7 79 -3 35 4 52 3 52 -5 0 -25 -42 -91 -75 -116 -40 -30 -62 -63 -48
-73 4 -3 14 -18 20 -33 7 -15 41 -50 77 -78 73 -57 76 -76 20 -111 -19 -11
-38 -27 -42 -36 -8 -14 -12 -13 -38 3 -25 16 -27 16 -16 2 8 -10 22 -20 32
-23 32 -10 60 -198 40 -260 -11 -35 -13 -36 -35 -21 -33 22 -45 3 -53 -81 -4
-37 -11 -67 -17 -65 -5 1 -16 21 -24 43 -8 24 -32 60 -57 84 l-44 41 33 16
c45 22 179 148 175 165 -2 12 -26 16 -113 17 -89 2 -120 7 -162 26 -58 25 -57
22 -67 155 -10 125 -70 289 -149 404 -39 56 -223 242 -273 275 -22 13 -52 28
-69 31 l-30 6 35 -20 c50 -28 274 -254 322 -324 80 -117 147 -318 148 -439 0
-92 81 -141 237 -142 83 -1 100 -11 55 -31 -12 -5 -25 -17 -28 -27 -5 -18 -80
-69 -136 -93 -21 -8 -58 -15 -82 -15 -40 0 -48 4 -72 38 -43 57 -50 61 -22 12
30 -54 45 -168 23 -177 -14 -5 -94 35 -130 65 -12 9 -26 33 -33 52 -6 19 -10
25 -8 12 6 -30 -27 -115 -59 -158 -32 -42 -59 -60 -104 -68 -29 -5 -32 -4 -26
12 21 54 26 115 15 162 -12 50 -84 170 -103 170 -5 0 -26 14 -46 32 -19 17
-77 51 -128 75 -179 85 -337 117 -469 94 l-68 -12 -28 33 c-69 81 -177 230
-226 312 -51 84 -122 248 -122 281 0 8 -4 15 -9 15 -13 0 -39 -130 -57 -280
-19 -156 -14 -355 10 -465 38 -168 143 -306 286 -377 l72 -35 -43 -18 c-57
-23 -181 -31 -239 -15 -31 8 -58 26 -89 59 -43 45 -41 36 6 -22 13 -16 21 -33
17 -38 -3 -5 2 -19 10 -31 24 -34 20 -58 -8 -58 -36 0 -193 83 -256 135 -61
50 -84 58 -71 23 10 -29 -3 -76 -26 -94 -29 -22 -39 -16 -35 20 2 20 -4 51
-17 78 -17 39 -33 53 -101 93 -44 26 -95 65 -114 86 -61 72 -116 244 -116 365
0 29 -4 55 -9 58 -16 11 -61 -225 -61 -324 0 -135 60 -331 122 -397 l21 -23
-34 0 c-19 0 -66 9 -104 19 -38 11 -71 19 -72 18 -1 -2 5 -31 14 -65 9 -35 13
-65 10 -69 -12 -11 -102 20 -139 48 -39 31 -50 27 -62 -23 -20 -85 -78 -63
-150 56 -69 114 -103 280 -91 437 l7 86 -69 45 c-37 25 -90 68 -116 94 l-48
49 78 5 c47 3 91 12 110 23 105 57 202 187 359 482 58 108 84 145 158 222 l89
93 -30 68 c-17 37 -36 81 -43 99 -14 37 -40 64 -40 42z m886 -592 c11 -51 62
-155 121 -243 29 -45 53 -84 53 -87 0 -3 -14 -10 -31 -16 -46 -16 -32 -37 24
-33 42 3 47 0 74 -35 49 -66 58 -76 81 -99 l23 -22 -45 -27 c-57 -33 -132
-130 -116 -150 9 -11 27 -5 103 32 79 40 103 47 170 51 42 2 77 3 77 1 0 -2
-7 -26 -16 -54 -9 -29 -15 -82 -15 -124 1 -74 0 -75 -35 -104 -32 -27 -35 -33
-29 -66 8 -45 31 -81 50 -81 8 0 15 -3 15 -7 4 -85 21 -208 30 -217 16 -16
197 -14 237 2 27 12 32 19 35 60 10 106 -22 397 -59 541 -6 23 -4 23 63 -13
80 -42 172 -114 191 -150 24 -45 83 -42 83 4 0 10 7 23 16 31 13 10 17 10 25
-2 45 -65 51 -144 14 -212 -14 -27 -20 -49 -15 -52 16 -10 11 -47 -14 -100
-34 -70 -76 -111 -151 -146 -36 -17 -65 -37 -65 -44 0 -22 47 -52 100 -65 l50
-12 0 -71 c-1 -51 -7 -88 -23 -127 -20 -49 -26 -55 -60 -63 -26 -6 -47 -6 -63
2 -34 15 -108 14 -148 -3 -37 -15 -96 -82 -96 -108 0 -17 -27 -41 -80 -71 -25
-13 -31 -22 -27 -38 8 -31 -44 -62 -267 -154 -48 -20 -91 -33 -95 -28 -4 4
-12 20 -18 35 -11 24 -10 27 15 33 104 25 132 37 132 56 0 23 -26 25 -94 4
-65 -20 -330 -30 -426 -17 -221 31 -394 94 -508 184 -138 110 -166 234 -82
370 20 32 30 61 30 88 0 45 -1 44 52 28 42 -13 34 -28 -15 -28 -19 0 -27 -4
-25 -12 7 -22 106 -28 193 -13 44 8 117 21 162 29 44 8 108 26 141 41 62 28
140 95 110 95 -14 0 -33 39 -23 49 3 2 29 -4 59 -13 30 -10 67 -16 83 -14 26
3 28 6 26 43 l-1 40 116 0 c112 1 120 2 180 33 35 18 62 38 60 44 -2 6 -27 19
-55 29 -105 36 -203 115 -261 211 -50 83 -92 264 -92 403 0 88 33 424 41 419
4 -2 11 -19 15 -37z m-806 -593 c0 -15 -6 -24 -16 -24 -11 0 -14 5 -10 16 3 9
6 22 6 30 0 9 5 12 10 9 6 -3 10 -17 10 -31z m31 -101 c19 -59 75 -148 116
-183 20 -18 60 -44 89 -57 68 -31 104 -65 105 -100 3 -85 4 -88 26 -91 36 -5
83 34 83 69 0 35 7 36 40 6 14 -12 46 -38 73 -57 26 -18 47 -36 47 -39 -1 -10
-114 -78 -149 -90 -49 -16 -117 -14 -191 7 -109 31 -186 72 -135 72 20 0 19
29 -1 37 -34 13 -85 98 -115 192 -35 111 -51 257 -29 271 19 12 27 5 41 -37z
m2493 -194 c50 -59 71 -127 69 -224 -1 -80 -19 -156 -38 -162 -6 -2 -20 39
-33 89 -12 51 -33 131 -46 178 -13 47 -26 102 -30 123 -6 35 -5 37 18 37 16 0
36 -14 60 -41z m-1086 6 c7 -14 12 -43 12 -63 l0 -37 -80 -26 c-86 -28 -88
-28 -100 27 -8 33 -6 36 38 67 89 62 114 68 130 32z m966 3 c54 -186 107 -430
117 -538 18 -195 10 -219 -131 -380 -114 -131 -166 -165 -267 -176 -51 -5 -68
-3 -80 8 -13 14 -11 18 16 37 18 13 31 31 31 43 0 11 13 43 30 69 37 61 66
146 75 224 10 83 0 66 -20 -35 -18 -88 -78 -222 -116 -256 -18 -17 -19 -16
-19 10 0 15 5 37 11 48 6 11 13 35 16 52 l5 31 -26 -34 c-46 -62 -123 -97
-184 -85 -24 5 -36 16 -55 56 l-25 50 38 34 c50 45 75 132 67 231 -5 71 -20
93 -63 93 -27 0 -74 20 -74 31 0 5 18 14 40 20 72 22 169 143 185 232 5 27 12
37 27 37 57 0 149 85 163 151 4 16 8 29 10 29 3 0 32 -18 66 -40 72 -46 115
-52 128 -17 5 12 7 27 6 32 -16 53 -15 65 4 65 11 0 21 -9 25 -22z m-852 -55
c9 -10 18 -44 21 -76 6 -58 5 -59 -34 -96 -21 -21 -39 -44 -39 -51 0 -10 5 -9
18 3 16 15 20 15 50 -3 38 -23 40 -39 10 -67 -19 -17 -42 -23 -119 -28 l-97
-7 -4 38 c-3 22 -3 65 0 96 4 51 8 58 34 69 15 6 32 17 36 23 4 6 16 16 27 22
12 7 20 23 21 40 1 16 2 35 3 42 2 18 56 15 73 -5z m-1552 -317 l12 -94 -43
-88 c-40 -80 -44 -96 -44 -159 1 -53 6 -81 24 -113 48 -93 158 -188 290 -251
54 -26 77 -42 78 -56 1 -11 5 -34 9 -52 l6 -32 -48 -3 c-68 -4 -69 -26 -2 -30
l53 -3 -3 -40 c-3 -37 -38 -105 -54 -105 -4 0 -14 12 -22 28 -25 46 -74 92
-106 98 -37 8 -44 18 -31 42 5 10 13 41 16 68 6 41 3 54 -13 74 -17 21 -23 23
-44 13 -13 -6 -34 -26 -48 -45 l-23 -35 -29 51 c-41 74 -57 110 -93 211 -29
82 -34 90 -56 87 -13 -2 -43 -6 -67 -9 -52 -6 -119 16 -152 52 -18 19 -20 26
-9 29 8 2 30 9 49 15 59 18 97 48 125 95 31 53 55 135 55 189 0 20 2 37 4 37
2 0 23 -7 46 -15 52 -18 90 -19 90 -2 0 6 -7 37 -15 67 -19 71 -19 70 9 70 22
0 24 -5 36 -94z m1699 -498 c50 -28 77 -70 92 -137 17 -81 7 -140 -29 -172
-26 -23 -36 -26 -79 -22 -49 5 -51 4 -61 -25 -10 -30 -11 -30 -51 -20 l-41 11
6 63 c5 43 3 64 -4 64 -18 0 -46 103 -38 143 12 66 72 116 139 117 15 0 45
-10 66 -22z m306 -179 c-4 -70 18 -84 118 -76 39 4 85 9 101 13 l29 7 -7 -109
c-4 -60 -12 -122 -17 -139 -11 -31 -93 -98 -161 -130 -35 -17 -37 -17 -75 6
-31 19 -52 24 -109 24 -64 0 -71 2 -63 17 14 27 10 80 -8 100 -9 10 -30 18
-46 18 l-30 0 47 46 c26 26 50 44 53 40 4 -4 12 -39 19 -79 l12 -72 1 55 c1
31 -6 82 -14 113 -8 32 -15 89 -15 127 l0 70 43 1 c23 0 58 6 77 13 19 7 38
11 42 9 4 -2 5 -26 3 -54z m-1905 -90 c0 -6 -7 -38 -16 -71 -8 -33 -13 -66
-10 -73 2 -7 20 -15 39 -18 48 -8 81 -39 111 -106 39 -88 43 -151 13 -244 -29
-90 -78 -156 -140 -190 -37 -19 -57 -22 -162 -22 -123 1 -210 18 -261 52 -13
8 -40 42 -60 75 -34 55 -37 68 -41 152 -4 78 -2 98 17 141 30 70 63 110 117
142 39 23 57 27 122 26 42 0 91 -2 110 -3 25 -2 38 2 45 14 64 103 88 136 101
136 8 0 15 -5 15 -11z m1919 -411 c93 -63 150 -126 199 -222 34 -67 36 -77 36
-166 0 -114 -20 -165 -94 -239 -41 -41 -156 -112 -163 -100 -2 4 -44 120 -54
152 -3 9 -1 17 3 17 5 0 42 32 83 71 51 49 66 69 50 64 -46 -14 -76 -34 -113
-75 -21 -23 -38 -40 -40 -38 -1 1 -10 30 -21 62 l-19 59 34 29 c19 16 59 44
89 61 60 36 75 57 40 57 -28 0 -104 -43 -146 -83 l-32 -30 -10 24 c-5 13 -20
50 -34 82 l-26 57 31 35 c16 19 58 52 91 73 60 37 61 37 30 40 -38 4 -81 -17
-132 -64 l-39 -34 -27 67 c-15 38 -31 73 -36 79 -7 8 1 18 24 33 110 68 162
66 276 -11z m171 -9 c59 -44 73 -67 68 -114 -3 -29 -4 -29 -30 22 -23 46 -48
75 -107 120 -14 11 -14 12 -1 13 9 0 40 -18 70 -41z m-1271 -282 c1 -15 -4
-12 -24 11 -23 27 -24 33 -13 58 l13 27 12 -39 c6 -21 12 -47 12 -57z m1650
56 c-5 -15 -20 -44 -31 -65 l-22 -38 42 -40 c38 -37 74 -112 59 -126 -3 -3
-19 2 -35 12 -49 28 -63 15 -56 -53 6 -64 -12 -138 -35 -138 -32 0 -79 50 -93
99 -11 43 -19 53 -58 73 l-44 23 3 88 c1 48 -2 100 -8 116 -10 25 -9 28 6 21
91 -36 179 -26 236 25 40 37 49 37 36 3z m-1094 -20 c19 -40 63 -151 96 -242
22 -61 17 -71 -36 -70 -40 0 -67 16 -104 63 -17 21 -31 40 -31 41 0 1 -5 26
-10 55 -7 36 -7 65 1 93 10 38 46 97 59 97 3 0 15 -17 25 -37z m-501 -238 c8
-44 17 -100 21 -123 l6 -44 -29 24 c-16 12 -40 39 -53 58 -25 35 -25 36 -7 65
10 17 21 52 24 79 9 61 18 46 38 -59z m596 -131 c0 -8 -4 -12 -10 -9 -5 3 -10
10 -10 16 0 5 5 9 10 9 6 0 10 -7 10 -16z m49 -83 c14 -13 19 -20 11 -16 -28
15 -60 49 -60 64 1 12 3 11 11 -4 6 -11 23 -31 38 -44z"/>
<path d="M2207 1659 c-40 -41 -65 -59 -83 -59 -26 0 -98 32 -126 57 -20 17
-50 11 -43 -9 9 -22 98 -76 136 -83 22 -4 46 -2 60 5 33 17 129 111 129 127 0
28 -19 18 -73 -38z"/>
<path d="M3340 1214 c-6 -14 -10 -28 -10 -31 0 -18 -67 -134 -96 -166 -35 -38
-44 -66 -21 -68 55 -5 118 35 147 96 20 40 21 55 15 120 -7 78 -18 94 -35 49z
m-35 -183 l-27 -26 23 37 c13 21 26 32 28 27 2 -6 -9 -23 -24 -38z"/>
<path d="M1010 1042 c-44 -22 -88 -85 -96 -139 l-7 -43 37 0 c32 0 36 3 36 26
0 32 55 104 79 104 10 0 26 -9 36 -20 18 -20 18 -22 -24 -81 -36 -51 -42 -66
-37 -92 10 -51 34 -79 64 -75 29 3 32 19 17 79 -6 22 1 34 34 70 22 24 41 53
41 65 0 43 -83 122 -130 124 -8 0 -31 -8 -50 -18z"/>
<path d="M1102 689 c-32 -12 -37 -35 -19 -75 21 -43 58 -47 83 -9 30 45 -14
103 -64 84z"/>
<path d="M2830 3609 c14 -5 52 -22 85 -38 33 -16 62 -27 64 -25 16 15 -108 75
-152 73 -21 -1 -21 -1 3 -10z"/>
<path d="M1961 3444 c0 -11 3 -14 6 -6 3 7 2 16 -1 19 -3 4 -6 -2 -5 -13z"/>
<path d="M1350 2486 c0 -2 8 -10 18 -17 15 -13 16 -12 3 4 -13 16 -21 21 -21
13z"/>
<path d="M2769 904 c-33 -36 -72 -54 -114 -54 -46 0 -43 -24 4 -28 43 -4 118
33 136 69 25 48 13 54 -26 13z"/>
<path d="M1761 509 c-12 -24 -21 -53 -21 -63 0 -21 35 -71 88 -128 l36 -38
-38 -15 c-27 -12 -53 -14 -95 -9 -46 5 -59 3 -71 -10 -11 -15 -10 -21 7 -44
23 -31 116 -91 155 -99 27 -5 38 -26 38 -75 l0 -28 80 1 c70 1 79 3 69 15 -26
31 -46 34 -73 13 -15 -12 -29 -19 -32 -16 -3 3 -11 29 -18 58 -11 51 -13 54
-59 70 -27 10 -69 31 -95 48 l-47 31 66 0 c52 0 73 5 100 23 19 12 35 30 37
38 1 9 -14 33 -34 55 -83 90 -85 94 -67 147 12 35 13 51 5 59 -8 8 -17 0 -31
-33z"/>
</g>
</svg>
